<?xml version="1.0" ?>
<xmeml version="4">
    <project>
        <name>Example timeline</name>
        <children>
            <sequence id="sequence-1">
                <name>Example timeline</name>
                <duration>31267</duration>
                <rate>
                    <timebase>24</timebase>
                    <ntsc>FALSE</ntsc>
                </rate>
                <media>
                    <video>
                        <track/>
                        <track>
                            <clipitem frameBlend="FALSE" id="clipitem-21">
                                <file id="file-2">
                                    <pathurl>Batman Right.mp4</pathurl>
                                    <name>Batman Right.mp4</name>
                                    <rate>
                                        <timebase>24</timebase>
                                        <ntsc>FALSE</ntsc>
                                    </rate>
                                    <duration>31356</duration>
                                    <timecode>
                                        <rate>
                                            <timebase>24</timebase>
                                            <ntsc>FALSE</ntsc>
                                        </rate>
                                        <string>00:00:00:00</string>
                                        <frame>0</frame>
                                        <displayformat>NDF</displayformat>
                                    </timecode>
                                    <media>
                                        <video/>
                                        <audio/>
                                    </media>
                                </file>
                                <name>vClip1</name>
                                <rate>
                                    <timebase>24</timebase>
                                    <ntsc>FALSE</ntsc>
                                </rate>
                                <rate>
                                    <timebase>24</timebase>
                                    <ntsc>FALSE</ntsc>
                                </rate>
                                <duration>140</duration>
                                <start>120</start>
                                <end>260</end>
                                <in>120</in>
                                <out>260</out>
                            </clipitem>
                            <clipitem frameBlend="FALSE" id="clipitem-22">
                                <file id="file-2"/>
                                <name>vClip2</name>
                                <rate>
                                    <timebase>24</timebase>
                                    <ntsc>FALSE</ntsc>
                                </rate>
                                <rate>
                                    <timebase>24</timebase>
                                    <ntsc>FALSE</ntsc>
                                </rate>
                                <duration>1646</duration>
                                <start>1254</start>
                                <end>2900</end>
                                <in>1254</in>
                                <out>2900</out>
                            </clipitem>
                            <clipitem frameBlend="FALSE" id="clipitem-23">
                                <file id="file-2"/>
                                <name>vClip3</name>
                                <rate>
                                    <timebase>24</timebase>
                                    <ntsc>FALSE</ntsc>
                                </rate>
                                <rate>
                                    <timebase>24</timebase>
                                    <ntsc>FALSE</ntsc>
                                </rate>
                                <duration>580</duration>
                                <start>3607</start>
                                <end>4187</end>
                                <in>3607</in>
                                <out>4187</out>
                            </clipitem>
                            <clipitem frameBlend="FALSE" id="clipitem-24">
                                <file id="file-2"/>
                                <name>vClip4</name>
                                <rate>
                                    <timebase>24</timebase>
                                    <ntsc>FALSE</ntsc>
                                </rate>
                                <rate>
                                    <timebase>24</timebase>
                                    <ntsc>FALSE</ntsc>
                                </rate>
                                <duration>798</duration>
                                <start>7934</start>
                                <end>8732</end>
                                <in>7934</in>
                                <out>8732</out>
                            </clipitem>
                            <clipitem frameBlend="FALSE" id="clipitem-25">
                                <file id="file-2"/>
                                <name>vClip5</name>
                                <rate>
                                    <timebase>24</timebase>
                                    <ntsc>FALSE</ntsc>
                                </rate>
                                <rate>
                                    <timebase>24</timebase>
                                    <ntsc>FALSE</ntsc>
                                </rate>
                                <duration>287</duration>
                                <start>11891</start>
                                <end>12178</end>
                                <in>11891</in>
                                <out>12178</out>
                            </clipitem>
                            <clipitem frameBlend="FALSE" id="clipitem-26">
                                <file id="file-2"/>
                                <name>vClip6</name>
                                <rate>
                                    <timebase>24</timebase>
                                    <ntsc>FALSE</ntsc>
                                </rate>
                                <rate>
                                    <timebase>24</timebase>
                                    <ntsc>FALSE</ntsc>
                                </rate>
                                <duration>102</duration>
                                <start>12199</start>
                                <end>12301</end>
                                <in>12199</in>
                                <out>12301</out>
                            </clipitem>
                            <clipitem frameBlend="FALSE" id="clipitem-27">
                                <file id="file-2"/>
                                <name>vClip7</name>
                                <rate>
                                    <timebase>24</timebase>
                                    <ntsc>FALSE</ntsc>
                                </rate>
                                <rate>
                                    <timebase>24</timebase>
                                    <ntsc>FALSE</ntsc>
                                </rate>
                                <duration>62</duration>
                                <start>15166</start>
                                <end>15228</end>
                                <in>15166</in>
                                <out>15228</out>
                            </clipitem>
                            <clipitem frameBlend="FALSE" id="clipitem-28">
                                <file id="file-2"/>
                                <name>vClip8</name>
                                <rate>
                                    <timebase>24</timebase>
                                    <ntsc>FALSE</ntsc>
                                </rate>
                                <rate>
                                    <timebase>24</timebase>
                                    <ntsc>FALSE</ntsc>
                                </rate>
                                <duration>403</duration>
                                <start>16130</start>
                                <end>16533</end>
                                <in>16130</in>
                                <out>16533</out>
                            </clipitem>
                            <clipitem frameBlend="FALSE" id="clipitem-29">
                                <file id="file-2"/>
                                <name>vClip9</name>
                                <rate>
                                    <timebase>24</timebase>
                                    <ntsc>FALSE</ntsc>
                                </rate>
                                <rate>
                                    <timebase>24</timebase>
                                    <ntsc>FALSE</ntsc>
                                </rate>
                                <duration>161</duration>
                                <start>17197</start>
                                <end>17358</end>
                                <in>17197</in>
                                <out>17358</out>
                            </clipitem>
                            <clipitem frameBlend="FALSE" id="clipitem-30">
                                <file id="file-2"/>
                                <name>vClip10</name>
                                <rate>
                                    <timebase>24</timebase>
                                    <ntsc>FALSE</ntsc>
                                </rate>
                                <rate>
                                    <timebase>24</timebase>
                                    <ntsc>FALSE</ntsc>
                                </rate>
                                <duration>211</duration>
                                <start>17758</start>
                                <end>17969</end>
                                <in>17758</in>
                                <out>17969</out>
                            </clipitem>
                            <clipitem frameBlend="FALSE" id="clipitem-31">
                                <file id="file-2"/>
                                <name>vClip11</name>
                                <rate>
                                    <timebase>24</timebase>
                                    <ntsc>FALSE</ntsc>
                                </rate>
                                <rate>
                                    <timebase>24</timebase>
                                    <ntsc>FALSE</ntsc>
                                </rate>
                                <duration>165</duration>
                                <start>18087</start>
                                <end>18252</end>
                                <in>18087</in>
                                <out>18252</out>
                            </clipitem>
                            <clipitem frameBlend="FALSE" id="clipitem-32">
                                <file id="file-2"/>
                                <name>vClip12</name>
                                <rate>
                                    <timebase>24</timebase>
                                    <ntsc>FALSE</ntsc>
                                </rate>
                                <rate>
                                    <timebase>24</timebase>
                                    <ntsc>FALSE</ntsc>
                                </rate>
                                <duration>120</duration>
                                <start>18762</start>
                                <end>18882</end>
                                <in>18762</in>
                                <out>18882</out>
                            </clipitem>
                            <clipitem frameBlend="FALSE" id="clipitem-33">
                                <file id="file-2"/>
                                <name>vClip13</name>
                                <rate>
                                    <timebase>24</timebase>
                                    <ntsc>FALSE</ntsc>
                                </rate>
                                <rate>
                                    <timebase>24</timebase>
                                    <ntsc>FALSE</ntsc>
                                </rate>
                                <duration>61</duration>
                                <start>20364</start>
                                <end>20425</end>
                                <in>20364</in>
                                <out>20425</out>
                            </clipitem>
                            <clipitem frameBlend="FALSE" id="clipitem-34">
                                <file id="file-2"/>
                                <name>vClip14</name>
                                <rate>
                                    <timebase>24</timebase>
                                    <ntsc>FALSE</ntsc>
                                </rate>
                                <rate>
                                    <timebase>24</timebase>
                                    <ntsc>FALSE</ntsc>
                                </rate>
                                <duration>344</duration>
                                <start>20539</start>
                                <end>20883</end>
                                <in>20539</in>
                                <out>20883</out>
                            </clipitem>
                            <clipitem frameBlend="FALSE" id="clipitem-35">
                                <file id="file-2"/>
                                <name>vClip15</name>
                                <rate>
                                    <timebase>24</timebase>
                                    <ntsc>FALSE</ntsc>
                                </rate>
                                <rate>
                                    <timebase>24</timebase>
                                    <ntsc>FALSE</ntsc>
                                </rate>
                                <duration>2293</duration>
                                <start>21962</start>
                                <end>24256</end>
                                <in>21962</in>
                                <out>24256</out>
                            </clipitem>
                            <clipitem frameBlend="FALSE" id="clipitem-36">
                                <file id="file-2"/>
                                <name>vClip16</name>
                                <rate>
                                    <timebase>24</timebase>
                                    <ntsc>FALSE</ntsc>
                                </rate>
                                <rate>
                                    <timebase>24</timebase>
                                    <ntsc>FALSE</ntsc>
                                </rate>
                                <duration>433</duration>
                                <start>25319</start>
                                <end>25753</end>
                                <in>25319</in>
                                <out>25753</out>
                            </clipitem>
                            <clipitem frameBlend="FALSE" id="clipitem-37">
                                <file id="file-2"/>
                                <name>vClip17</name>
                                <rate>
                                    <timebase>24</timebase>
                                    <ntsc>FALSE</ntsc>
                                </rate>
                                <rate>
                                    <timebase>24</timebase>
                                    <ntsc>FALSE</ntsc>
                                </rate>
                                <duration>85</duration>
                                <start>27166</start>
                                <end>27251</end>
                                <in>27166</in>
                                <out>27251</out>
                            </clipitem>
                            <clipitem frameBlend="FALSE" id="clipitem-38">
                                <file id="file-2"/>
                                <name>vClip18</name>
                                <rate>
                                    <timebase>24</timebase>
                                    <ntsc>FALSE</ntsc>
                                </rate>
                                <rate>
                                    <timebase>24</timebase>
                                    <ntsc>FALSE</ntsc>
                                </rate>
                                <duration>39</duration>
                                <start>30010</start>
                                <end>30049</end>
                                <in>30010</in>
                                <out>30049</out>
                            </clipitem>
                            <clipitem frameBlend="FALSE" id="clipitem-39">
                                <file id="file-2"/>
                                <name>vClip19</name>
                                <rate>
                                    <timebase>24</timebase>
                                    <ntsc>FALSE</ntsc>
                                </rate>
                                <rate>
                                    <timebase>24</timebase>
                                    <ntsc>FALSE</ntsc>
                                </rate>
                                <duration>208</duration>
                                <start>30380</start>
                                <end>30588</end>
                                <in>30380</in>
                                <out>30588</out>
                            </clipitem>
                            <clipitem frameBlend="FALSE" id="clipitem-40">
                                <file id="file-2"/>
                                <name>vClip20</name>
                                <rate>
                                    <timebase>24</timebase>
                                    <ntsc>FALSE</ntsc>
                                </rate>
                                <rate>
                                    <timebase>24</timebase>
                                    <ntsc>FALSE</ntsc>
                                </rate>
                                <duration>475</duration>
                                <start>30674</start>
                                <end>31150</end>
                                <in>30674</in>
                                <out>31150</out>
                            </clipitem>
                        </track>
                        <track>
                            <clipitem frameBlend="FALSE" id="clipitem-59">
                                <file id="file-2"/>
                                <name>vClip21</name>
                                <rate>
                                    <timebase>24</timebase>
                                    <ntsc>FALSE</ntsc>
                                </rate>
                                <rate>
                                    <timebase>24</timebase>
                                    <ntsc>FALSE</ntsc>
                                </rate>
                                <duration>318</duration>
                                <start>717</start>
                                <end>1035</end>
                                <in>717</in>
                                <out>1035</out>
                            </clipitem>
                            <clipitem frameBlend="FALSE" id="clipitem-60">
                                <file id="file-2"/>
                                <name>vClip22</name>
                                <rate>
                                    <timebase>24</timebase>
                                    <ntsc>FALSE</ntsc>
                                </rate>
                                <rate>
                                    <timebase>24</timebase>
                                    <ntsc>FALSE</ntsc>
                                </rate>
                                <duration>131</duration>
                                <start>1062</start>
                                <end>1193</end>
                                <in>1062</in>
                                <out>1193</out>
                            </clipitem>
                            <clipitem frameBlend="FALSE" id="clipitem-61">
                                <file id="file-2"/>
                                <name>vClip23</name>
                                <rate>
                                    <timebase>24</timebase>
                                    <ntsc>FALSE</ntsc>
                                </rate>
                                <rate>
                                    <timebase>24</timebase>
                                    <ntsc>FALSE</ntsc>
                                </rate>
                                <duration>707</duration>
                                <start>2900</start>
                                <end>3607</end>
                                <in>2900</in>
                                <out>3607</out>
                            </clipitem>
                            <clipitem frameBlend="FALSE" id="clipitem-62">
                                <file id="file-2"/>
                                <name>vClip24</name>
                                <rate>
                                    <timebase>24</timebase>
                                    <ntsc>FALSE</ntsc>
                                </rate>
                                <rate>
                                    <timebase>24</timebase>
                                    <ntsc>FALSE</ntsc>
                                </rate>
                                <duration>69</duration>
                                <start>6091</start>
                                <end>6161</end>
                                <in>6091</in>
                                <out>6161</out>
                            </clipitem>
                            <clipitem frameBlend="FALSE" id="clipitem-63">
                                <file id="file-2"/>
                                <name>vClip25</name>
                                <rate>
                                    <timebase>24</timebase>
                                    <ntsc>FALSE</ntsc>
                                </rate>
                                <rate>
                                    <timebase>24</timebase>
                                    <ntsc>FALSE</ntsc>
                                </rate>
                                <duration>20</duration>
                                <start>12178</start>
                                <end>12199</end>
                                <in>12178</in>
                                <out>12199</out>
                            </clipitem>
                            <clipitem frameBlend="FALSE" id="clipitem-64">
                                <file id="file-2"/>
                                <name>vClip26</name>
                                <rate>
                                    <timebase>24</timebase>
                                    <ntsc>FALSE</ntsc>
                                </rate>
                                <rate>
                                    <timebase>24</timebase>
                                    <ntsc>FALSE</ntsc>
                                </rate>
                                <duration>50</duration>
                                <start>12913</start>
                                <end>12963</end>
                                <in>12913</in>
                                <out>12963</out>
                            </clipitem>
                            <clipitem frameBlend="FALSE" id="clipitem-65">
                                <file id="file-2"/>
                                <name>vClip27</name>
                                <rate>
                                    <timebase>24</timebase>
                                    <ntsc>FALSE</ntsc>
                                </rate>
                                <rate>
                                    <timebase>24</timebase>
                                    <ntsc>FALSE</ntsc>
                                </rate>
                                <duration>99</duration>
                                <start>14850</start>
                                <end>14948</end>
                                <in>14850</in>
                                <out>14948</out>
                            </clipitem>
                            <clipitem frameBlend="FALSE" id="clipitem-66">
                                <file id="file-2"/>
                                <name>vClip28</name>
                                <rate>
                                    <timebase>24</timebase>
                                    <ntsc>FALSE</ntsc>
                                </rate>
                                <rate>
                                    <timebase>24</timebase>
                                    <ntsc>FALSE</ntsc>
                                </rate>
                                <duration>153</duration>
                                <start>15228</start>
                                <end>15382</end>
                                <in>15228</in>
                                <out>15382</out>
                            </clipitem>
                            <clipitem frameBlend="FALSE" id="clipitem-67">
                                <file id="file-2"/>
                                <name>vClip29</name>
                                <rate>
                                    <timebase>24</timebase>
                                    <ntsc>FALSE</ntsc>
                                </rate>
                                <rate>
                                    <timebase>24</timebase>
                                    <ntsc>FALSE</ntsc>
                                </rate>
                                <duration>398</duration>
                                <start>16533</start>
                                <end>16932</end>
                                <in>16533</in>
                                <out>16932</out>
                            </clipitem>
                            <clipitem frameBlend="FALSE" id="clipitem-68">
                                <file id="file-2"/>
                                <name>vClip30</name>
                                <rate>
                                    <timebase>24</timebase>
                                    <ntsc>FALSE</ntsc>
                                </rate>
                                <rate>
                                    <timebase>24</timebase>
                                    <ntsc>FALSE</ntsc>
                                </rate>
                                <duration>130</duration>
                                <start>17068</start>
                                <end>17197</end>
                                <in>17068</in>
                                <out>17197</out>
                            </clipitem>
                            <clipitem frameBlend="FALSE" id="clipitem-69">
                                <file id="file-2"/>
                                <name>vClip31</name>
                                <rate>
                                    <timebase>24</timebase>
                                    <ntsc>FALSE</ntsc>
                                </rate>
                                <rate>
                                    <timebase>24</timebase>
                                    <ntsc>FALSE</ntsc>
                                </rate>
                                <duration>66</duration>
                                <start>17358</start>
                                <end>17424</end>
                                <in>17358</in>
                                <out>17424</out>
                            </clipitem>
                            <clipitem frameBlend="FALSE" id="clipitem-70">
                                <file id="file-2"/>
                                <name>vClip32</name>
                                <rate>
                                    <timebase>24</timebase>
                                    <ntsc>FALSE</ntsc>
                                </rate>
                                <rate>
                                    <timebase>24</timebase>
                                    <ntsc>FALSE</ntsc>
                                </rate>
                                <duration>118</duration>
                                <start>17969</start>
                                <end>18087</end>
                                <in>17969</in>
                                <out>18087</out>
                            </clipitem>
                            <clipitem frameBlend="FALSE" id="clipitem-71">
                                <file id="file-2"/>
                                <name>vClip33</name>
                                <rate>
                                    <timebase>24</timebase>
                                    <ntsc>FALSE</ntsc>
                                </rate>
                                <rate>
                                    <timebase>24</timebase>
                                    <ntsc>FALSE</ntsc>
                                </rate>
                                <duration>397</duration>
                                <start>21488</start>
                                <end>21884</end>
                                <in>21488</in>
                                <out>21884</out>
                            </clipitem>
                            <clipitem frameBlend="FALSE" id="clipitem-72">
                                <file id="file-2"/>
                                <name>vClip34</name>
                                <rate>
                                    <timebase>24</timebase>
                                    <ntsc>FALSE</ntsc>
                                </rate>
                                <rate>
                                    <timebase>24</timebase>
                                    <ntsc>FALSE</ntsc>
                                </rate>
                                <duration>235</duration>
                                <start>24256</start>
                                <end>24490</end>
                                <in>24256</in>
                                <out>24490</out>
                            </clipitem>
                            <clipitem frameBlend="FALSE" id="clipitem-73">
                                <file id="file-2"/>
                                <name>vClip35</name>
                                <rate>
                                    <timebase>24</timebase>
                                    <ntsc>FALSE</ntsc>
                                </rate>
                                <rate>
                                    <timebase>24</timebase>
                                    <ntsc>FALSE</ntsc>
                                </rate>
                                <duration>290</duration>
                                <start>24613</start>
                                <end>24903</end>
                                <in>24613</in>
                                <out>24903</out>
                            </clipitem>
                            <clipitem frameBlend="FALSE" id="clipitem-74">
                                <file id="file-2"/>
                                <name>vClip36</name>
                                <rate>
                                    <timebase>24</timebase>
                                    <ntsc>FALSE</ntsc>
                                </rate>
                                <rate>
                                    <timebase>24</timebase>
                                    <ntsc>FALSE</ntsc>
                                </rate>
                                <duration>837</duration>
                                <start>29173</start>
                                <end>30010</end>
                                <in>29173</in>
                                <out>30010</out>
                            </clipitem>
                            <clipitem frameBlend="FALSE" id="clipitem-75">
                                <file id="file-2"/>
                                <name>vClip37</name>
                                <rate>
                                    <timebase>24</timebase>
                                    <ntsc>FALSE</ntsc>
                                </rate>
                                <rate>
                                    <timebase>24</timebase>
                                    <ntsc>FALSE</ntsc>
                                </rate>
                                <duration>176</duration>
                                <start>30204</start>
                                <end>30380</end>
                                <in>30204</in>
                                <out>30380</out>
                            </clipitem>
                            <clipitem frameBlend="FALSE" id="clipitem-76">
                                <file id="file-2"/>
                                <name>vClip38</name>
                                <rate>
                                    <timebase>24</timebase>
                                    <ntsc>FALSE</ntsc>
                                </rate>
                                <rate>
                                    <timebase>24</timebase>
                                    <ntsc>FALSE</ntsc>
                                </rate>
                                <duration>30</duration>
                                <start>31150</start>
                                <end>31180</end>
                                <in>31150</in>
                                <out>31180</out>
                            </clipitem>
                        </track>
                        <track>
                            <clipitem frameBlend="FALSE" id="clipitem-99">
                                <file id="file-5">
                                    <pathurl>Batman Left.mp4</pathurl>
                                    <name>Batman Left.mp4</name>
                                    <rate>
                                        <timebase>24</timebase>
                                        <ntsc>FALSE</ntsc>
                                    </rate>
                                    <duration>31356</duration>
                                    <timecode>
                                        <rate>
                                            <timebase>24</timebase>
                                            <ntsc>FALSE</ntsc>
                                        </rate>
                                        <string>00:00:00:00</string>
                                        <frame>0</frame>
                                        <displayformat>NDF</displayformat>
                                    </timecode>
                                    <media>
                                        <video/>
                                        <audio/>
                                    </media>
                                </file>
                                <name>vClip39</name>
                                <rate>
                                    <timebase>24</timebase>
                                    <ntsc>FALSE</ntsc>
                                </rate>
                                <rate>
                                    <timebase>24</timebase>
                                    <ntsc>FALSE</ntsc>
                                </rate>
                                <duration>297</duration>
                                <start>260</start>
                                <end>557</end>
                                <in>260</in>
                                <out>557</out>
                            </clipitem>
                            <clipitem frameBlend="FALSE" id="clipitem-100">
                                <file id="file-5"/>
                                <name>vClip40</name>
                                <rate>
                                    <timebase>24</timebase>
                                    <ntsc>FALSE</ntsc>
                                </rate>
                                <rate>
                                    <timebase>24</timebase>
                                    <ntsc>FALSE</ntsc>
                                </rate>
                                <duration>27</duration>
                                <start>1035</start>
                                <end>1062</end>
                                <in>1035</in>
                                <out>1062</out>
                            </clipitem>
                            <clipitem frameBlend="FALSE" id="clipitem-101">
                                <file id="file-5"/>
                                <name>vClip41</name>
                                <rate>
                                    <timebase>24</timebase>
                                    <ntsc>FALSE</ntsc>
                                </rate>
                                <rate>
                                    <timebase>24</timebase>
                                    <ntsc>FALSE</ntsc>
                                </rate>
                                <duration>61</duration>
                                <start>1193</start>
                                <end>1254</end>
                                <in>1193</in>
                                <out>1254</out>
                            </clipitem>
                            <clipitem frameBlend="FALSE" id="clipitem-102">
                                <file id="file-5"/>
                                <name>vClip42</name>
                                <rate>
                                    <timebase>24</timebase>
                                    <ntsc>FALSE</ntsc>
                                </rate>
                                <rate>
                                    <timebase>24</timebase>
                                    <ntsc>FALSE</ntsc>
                                </rate>
                                <duration>144</duration>
                                <start>5947</start>
                                <end>6091</end>
                                <in>5947</in>
                                <out>6091</out>
                            </clipitem>
                            <clipitem frameBlend="FALSE" id="clipitem-103">
                                <file id="file-5"/>
                                <name>vClip43</name>
                                <rate>
                                    <timebase>24</timebase>
                                    <ntsc>FALSE</ntsc>
                                </rate>
                                <rate>
                                    <timebase>24</timebase>
                                    <ntsc>FALSE</ntsc>
                                </rate>
                                <duration>641</duration>
                                <start>6161</start>
                                <end>6802</end>
                                <in>6161</in>
                                <out>6802</out>
                            </clipitem>
                            <clipitem frameBlend="FALSE" id="clipitem-104">
                                <file id="file-5"/>
                                <name>vClip44</name>
                                <rate>
                                    <timebase>24</timebase>
                                    <ntsc>FALSE</ntsc>
                                </rate>
                                <rate>
                                    <timebase>24</timebase>
                                    <ntsc>FALSE</ntsc>
                                </rate>
                                <duration>149</duration>
                                <start>6900</start>
                                <end>7049</end>
                                <in>6900</in>
                                <out>7049</out>
                            </clipitem>
                            <clipitem frameBlend="FALSE" id="clipitem-105">
                                <file id="file-5"/>
                                <name>vClip45</name>
                                <rate>
                                    <timebase>24</timebase>
                                    <ntsc>FALSE</ntsc>
                                </rate>
                                <rate>
                                    <timebase>24</timebase>
                                    <ntsc>FALSE</ntsc>
                                </rate>
                                <duration>1097</duration>
                                <start>8882</start>
                                <end>9980</end>
                                <in>8882</in>
                                <out>9980</out>
                            </clipitem>
                            <clipitem frameBlend="FALSE" id="clipitem-106">
                                <file id="file-5"/>
                                <name>vClip46</name>
                                <rate>
                                    <timebase>24</timebase>
                                    <ntsc>FALSE</ntsc>
                                </rate>
                                <rate>
                                    <timebase>24</timebase>
                                    <ntsc>FALSE</ntsc>
                                </rate>
                                <duration>99</duration>
                                <start>10888</start>
                                <end>10987</end>
                                <in>10888</in>
                                <out>10987</out>
                            </clipitem>
                            <clipitem frameBlend="FALSE" id="clipitem-107">
                                <file id="file-5"/>
                                <name>vClip47</name>
                                <rate>
                                    <timebase>24</timebase>
                                    <ntsc>FALSE</ntsc>
                                </rate>
                                <rate>
                                    <timebase>24</timebase>
                                    <ntsc>FALSE</ntsc>
                                </rate>
                                <duration>612</duration>
                                <start>12301</start>
                                <end>12913</end>
                                <in>12301</in>
                                <out>12913</out>
                            </clipitem>
                            <clipitem frameBlend="FALSE" id="clipitem-108">
                                <file id="file-5"/>
                                <name>vClip48</name>
                                <rate>
                                    <timebase>24</timebase>
                                    <ntsc>FALSE</ntsc>
                                </rate>
                                <rate>
                                    <timebase>24</timebase>
                                    <ntsc>FALSE</ntsc>
                                </rate>
                                <duration>1006</duration>
                                <start>12963</start>
                                <end>13969</end>
                                <in>12963</in>
                                <out>13969</out>
                            </clipitem>
                            <clipitem frameBlend="FALSE" id="clipitem-109">
                                <file id="file-5"/>
                                <name>vClip49</name>
                                <rate>
                                    <timebase>24</timebase>
                                    <ntsc>FALSE</ntsc>
                                </rate>
                                <rate>
                                    <timebase>24</timebase>
                                    <ntsc>FALSE</ntsc>
                                </rate>
                                <duration>458</duration>
                                <start>14156</start>
                                <end>14613</end>
                                <in>14156</in>
                                <out>14613</out>
                            </clipitem>
                            <clipitem frameBlend="FALSE" id="clipitem-110">
                                <file id="file-5"/>
                                <name>vClip50</name>
                                <rate>
                                    <timebase>24</timebase>
                                    <ntsc>FALSE</ntsc>
                                </rate>
                                <rate>
                                    <timebase>24</timebase>
                                    <ntsc>FALSE</ntsc>
                                </rate>
                                <duration>70</duration>
                                <start>15096</start>
                                <end>15166</end>
                                <in>15096</in>
                                <out>15166</out>
                            </clipitem>
                            <clipitem frameBlend="FALSE" id="clipitem-111">
                                <file id="file-5"/>
                                <name>vClip51</name>
                                <rate>
                                    <timebase>24</timebase>
                                    <ntsc>FALSE</ntsc>
                                </rate>
                                <rate>
                                    <timebase>24</timebase>
                                    <ntsc>FALSE</ntsc>
                                </rate>
                                <duration>109</duration>
                                <start>16958</start>
                                <end>17068</end>
                                <in>16958</in>
                                <out>17068</out>
                            </clipitem>
                            <clipitem frameBlend="FALSE" id="clipitem-112">
                                <file id="file-5"/>
                                <name>vClip52</name>
                                <rate>
                                    <timebase>24</timebase>
                                    <ntsc>FALSE</ntsc>
                                </rate>
                                <rate>
                                    <timebase>24</timebase>
                                    <ntsc>FALSE</ntsc>
                                </rate>
                                <duration>156</duration>
                                <start>17424</start>
                                <end>17580</end>
                                <in>17424</in>
                                <out>17580</out>
                            </clipitem>
                            <clipitem frameBlend="FALSE" id="clipitem-113">
                                <file id="file-5"/>
                                <name>vClip53</name>
                                <rate>
                                    <timebase>24</timebase>
                                    <ntsc>FALSE</ntsc>
                                </rate>
                                <rate>
                                    <timebase>24</timebase>
                                    <ntsc>FALSE</ntsc>
                                </rate>
                                <duration>330</duration>
                                <start>18252</start>
                                <end>18582</end>
                                <in>18252</in>
                                <out>18582</out>
                            </clipitem>
                            <clipitem frameBlend="FALSE" id="clipitem-114">
                                <file id="file-5"/>
                                <name>vClip54</name>
                                <rate>
                                    <timebase>24</timebase>
                                    <ntsc>FALSE</ntsc>
                                </rate>
                                <rate>
                                    <timebase>24</timebase>
                                    <ntsc>FALSE</ntsc>
                                </rate>
                                <duration>82</duration>
                                <start>18680</start>
                                <end>18762</end>
                                <in>18680</in>
                                <out>18762</out>
                            </clipitem>
                            <clipitem frameBlend="FALSE" id="clipitem-115">
                                <file id="file-5"/>
                                <name>vClip55</name>
                                <rate>
                                    <timebase>24</timebase>
                                    <ntsc>FALSE</ntsc>
                                </rate>
                                <rate>
                                    <timebase>24</timebase>
                                    <ntsc>FALSE</ntsc>
                                </rate>
                                <duration>668</duration>
                                <start>18882</start>
                                <end>19550</end>
                                <in>18882</in>
                                <out>19550</out>
                            </clipitem>
                            <clipitem frameBlend="FALSE" id="clipitem-116">
                                <file id="file-5"/>
                                <name>vClip56</name>
                                <rate>
                                    <timebase>24</timebase>
                                    <ntsc>FALSE</ntsc>
                                </rate>
                                <rate>
                                    <timebase>24</timebase>
                                    <ntsc>FALSE</ntsc>
                                </rate>
                                <duration>111</duration>
                                <start>24502</start>
                                <end>24613</end>
                                <in>24502</in>
                                <out>24613</out>
                            </clipitem>
                            <clipitem frameBlend="FALSE" id="clipitem-117">
                                <file id="file-5"/>
                                <name>vClip57</name>
                                <rate>
                                    <timebase>24</timebase>
                                    <ntsc>FALSE</ntsc>
                                </rate>
                                <rate>
                                    <timebase>24</timebase>
                                    <ntsc>FALSE</ntsc>
                                </rate>
                                <duration>824</duration>
                                <start>25753</start>
                                <end>26576</end>
                                <in>25753</in>
                                <out>26576</out>
                            </clipitem>
                            <clipitem frameBlend="FALSE" id="clipitem-118">
                                <file id="file-5"/>
                                <name>vClip58</name>
                                <rate>
                                    <timebase>24</timebase>
                                    <ntsc>FALSE</ntsc>
                                </rate>
                                <rate>
                                    <timebase>24</timebase>
                                    <ntsc>FALSE</ntsc>
                                </rate>
                                <duration>372</duration>
                                <start>28459</start>
                                <end>28831</end>
                                <in>28459</in>
                                <out>28831</out>
                            </clipitem>
                            <clipitem frameBlend="FALSE" id="clipitem-119">
                                <file id="file-5"/>
                                <name>vClip59</name>
                                <rate>
                                    <timebase>24</timebase>
                                    <ntsc>FALSE</ntsc>
                                </rate>
                                <rate>
                                    <timebase>24</timebase>
                                    <ntsc>FALSE</ntsc>
                                </rate>
                                <duration>180</duration>
                                <start>28993</start>
                                <end>29173</end>
                                <in>28993</in>
                                <out>29173</out>
                            </clipitem>
                            <clipitem frameBlend="FALSE" id="clipitem-120">
                                <file id="file-5"/>
                                <name>vClip60</name>
                                <rate>
                                    <timebase>24</timebase>
                                    <ntsc>FALSE</ntsc>
                                </rate>
                                <rate>
                                    <timebase>24</timebase>
                                    <ntsc>FALSE</ntsc>
                                </rate>
                                <duration>83</duration>
                                <start>31184</start>
                                <end>31267</end>
                                <in>31184</in>
                                <out>31267</out>
                            </clipitem>
                        </track>
                        <track>
                            <clipitem frameBlend="FALSE" id="clipitem-147">
                                <file id="file-5"/>
                                <name>vClip61</name>
                                <rate>
                                    <timebase>24</timebase>
                                    <ntsc>FALSE</ntsc>
                                </rate>
                                <rate>
                                    <timebase>24</timebase>
                                    <ntsc>FALSE</ntsc>
                                </rate>
                                <duration>160</duration>
                                <start>557</start>
                                <end>717</end>
                                <in>557</in>
                                <out>717</out>
                            </clipitem>
                            <clipitem frameBlend="FALSE" id="clipitem-148">
                                <file id="file-5"/>
                                <name>vClip62</name>
                                <rate>
                                    <timebase>24</timebase>
                                    <ntsc>FALSE</ntsc>
                                </rate>
                                <rate>
                                    <timebase>24</timebase>
                                    <ntsc>FALSE</ntsc>
                                </rate>
                                <duration>1760</duration>
                                <start>4187</start>
                                <end>5947</end>
                                <in>4187</in>
                                <out>5947</out>
                            </clipitem>
                            <clipitem frameBlend="FALSE" id="clipitem-149">
                                <file id="file-5"/>
                                <name>vClip63</name>
                                <rate>
                                    <timebase>24</timebase>
                                    <ntsc>FALSE</ntsc>
                                </rate>
                                <rate>
                                    <timebase>24</timebase>
                                    <ntsc>FALSE</ntsc>
                                </rate>
                                <duration>98</duration>
                                <start>6802</start>
                                <end>6900</end>
                                <in>6802</in>
                                <out>6900</out>
                            </clipitem>
                            <clipitem frameBlend="FALSE" id="clipitem-150">
                                <file id="file-5"/>
                                <name>vClip64</name>
                                <rate>
                                    <timebase>24</timebase>
                                    <ntsc>FALSE</ntsc>
                                </rate>
                                <rate>
                                    <timebase>24</timebase>
                                    <ntsc>FALSE</ntsc>
                                </rate>
                                <duration>885</duration>
                                <start>7049</start>
                                <end>7934</end>
                                <in>7049</in>
                                <out>7934</out>
                            </clipitem>
                            <clipitem frameBlend="FALSE" id="clipitem-151">
                                <file id="file-5"/>
                                <name>vClip65</name>
                                <rate>
                                    <timebase>24</timebase>
                                    <ntsc>FALSE</ntsc>
                                </rate>
                                <rate>
                                    <timebase>24</timebase>
                                    <ntsc>FALSE</ntsc>
                                </rate>
                                <duration>150</duration>
                                <start>8732</start>
                                <end>8882</end>
                                <in>8732</in>
                                <out>8882</out>
                            </clipitem>
                            <clipitem frameBlend="FALSE" id="clipitem-152">
                                <file id="file-5"/>
                                <name>vClip66</name>
                                <rate>
                                    <timebase>24</timebase>
                                    <ntsc>FALSE</ntsc>
                                </rate>
                                <rate>
                                    <timebase>24</timebase>
                                    <ntsc>FALSE</ntsc>
                                </rate>
                                <duration>908</duration>
                                <start>9980</start>
                                <end>10888</end>
                                <in>9980</in>
                                <out>10888</out>
                            </clipitem>
                            <clipitem frameBlend="FALSE" id="clipitem-153">
                                <file id="file-5"/>
                                <name>vClip67</name>
                                <rate>
                                    <timebase>24</timebase>
                                    <ntsc>FALSE</ntsc>
                                </rate>
                                <rate>
                                    <timebase>24</timebase>
                                    <ntsc>FALSE</ntsc>
                                </rate>
                                <duration>905</duration>
                                <start>10987</start>
                                <end>11891</end>
                                <in>10987</in>
                                <out>11891</out>
                            </clipitem>
                            <clipitem frameBlend="FALSE" id="clipitem-154">
                                <file id="file-5"/>
                                <name>vClip68</name>
                                <rate>
                                    <timebase>24</timebase>
                                    <ntsc>FALSE</ntsc>
                                </rate>
                                <rate>
                                    <timebase>24</timebase>
                                    <ntsc>FALSE</ntsc>
                                </rate>
                                <duration>187</duration>
                                <start>13969</start>
                                <end>14156</end>
                                <in>13969</in>
                                <out>14156</out>
                            </clipitem>
                            <clipitem frameBlend="FALSE" id="clipitem-155">
                                <file id="file-5"/>
                                <name>vClip69</name>
                                <rate>
                                    <timebase>24</timebase>
                                    <ntsc>FALSE</ntsc>
                                </rate>
                                <rate>
                                    <timebase>24</timebase>
                                    <ntsc>FALSE</ntsc>
                                </rate>
                                <duration>236</duration>
                                <start>14613</start>
                                <end>14850</end>
                                <in>14613</in>
                                <out>14850</out>
                            </clipitem>
                            <clipitem frameBlend="FALSE" id="clipitem-156">
                                <file id="file-5"/>
                                <name>vClip70</name>
                                <rate>
                                    <timebase>24</timebase>
                                    <ntsc>FALSE</ntsc>
                                </rate>
                                <rate>
                                    <timebase>24</timebase>
                                    <ntsc>FALSE</ntsc>
                                </rate>
                                <duration>148</duration>
                                <start>14948</start>
                                <end>15096</end>
                                <in>14948</in>
                                <out>15096</out>
                            </clipitem>
                            <clipitem frameBlend="FALSE" id="clipitem-157">
                                <file id="file-5"/>
                                <name>vClip71</name>
                                <rate>
                                    <timebase>24</timebase>
                                    <ntsc>FALSE</ntsc>
                                </rate>
                                <rate>
                                    <timebase>24</timebase>
                                    <ntsc>FALSE</ntsc>
                                </rate>
                                <duration>749</duration>
                                <start>15382</start>
                                <end>16130</end>
                                <in>15382</in>
                                <out>16130</out>
                            </clipitem>
                            <clipitem frameBlend="FALSE" id="clipitem-158">
                                <file id="file-5"/>
                                <name>vClip72</name>
                                <rate>
                                    <timebase>24</timebase>
                                    <ntsc>FALSE</ntsc>
                                </rate>
                                <rate>
                                    <timebase>24</timebase>
                                    <ntsc>FALSE</ntsc>
                                </rate>
                                <duration>27</duration>
                                <start>16932</start>
                                <end>16958</end>
                                <in>16932</in>
                                <out>16958</out>
                            </clipitem>
                            <clipitem frameBlend="FALSE" id="clipitem-159">
                                <file id="file-5"/>
                                <name>vClip73</name>
                                <rate>
                                    <timebase>24</timebase>
                                    <ntsc>FALSE</ntsc>
                                </rate>
                                <rate>
                                    <timebase>24</timebase>
                                    <ntsc>FALSE</ntsc>
                                </rate>
                                <duration>178</duration>
                                <start>17580</start>
                                <end>17758</end>
                                <in>17580</in>
                                <out>17758</out>
                            </clipitem>
                            <clipitem frameBlend="FALSE" id="clipitem-160">
                                <file id="file-5"/>
                                <name>vClip74</name>
                                <rate>
                                    <timebase>24</timebase>
                                    <ntsc>FALSE</ntsc>
                                </rate>
                                <rate>
                                    <timebase>24</timebase>
                                    <ntsc>FALSE</ntsc>
                                </rate>
                                <duration>98</duration>
                                <start>18582</start>
                                <end>18680</end>
                                <in>18582</in>
                                <out>18680</out>
                            </clipitem>
                            <clipitem frameBlend="FALSE" id="clipitem-161">
                                <file id="file-5"/>
                                <name>vClip75</name>
                                <rate>
                                    <timebase>24</timebase>
                                    <ntsc>FALSE</ntsc>
                                </rate>
                                <rate>
                                    <timebase>24</timebase>
                                    <ntsc>FALSE</ntsc>
                                </rate>
                                <duration>814</duration>
                                <start>19550</start>
                                <end>20364</end>
                                <in>19550</in>
                                <out>20364</out>
                            </clipitem>
                            <clipitem frameBlend="FALSE" id="clipitem-162">
                                <file id="file-5"/>
                                <name>vClip76</name>
                                <rate>
                                    <timebase>24</timebase>
                                    <ntsc>FALSE</ntsc>
                                </rate>
                                <rate>
                                    <timebase>24</timebase>
                                    <ntsc>FALSE</ntsc>
                                </rate>
                                <duration>114</duration>
                                <start>20425</start>
                                <end>20539</end>
                                <in>20425</in>
                                <out>20539</out>
                            </clipitem>
                            <clipitem frameBlend="FALSE" id="clipitem-163">
                                <file id="file-5"/>
                                <name>vClip77</name>
                                <rate>
                                    <timebase>24</timebase>
                                    <ntsc>FALSE</ntsc>
                                </rate>
                                <rate>
                                    <timebase>24</timebase>
                                    <ntsc>FALSE</ntsc>
                                </rate>
                                <duration>604</duration>
                                <start>20883</start>
                                <end>21488</end>
                                <in>20883</in>
                                <out>21488</out>
                            </clipitem>
                            <clipitem frameBlend="FALSE" id="clipitem-164">
                                <file id="file-5"/>
                                <name>vClip78</name>
                                <rate>
                                    <timebase>24</timebase>
                                    <ntsc>FALSE</ntsc>
                                </rate>
                                <rate>
                                    <timebase>24</timebase>
                                    <ntsc>FALSE</ntsc>
                                </rate>
                                <duration>78</duration>
                                <start>21884</start>
                                <end>21962</end>
                                <in>21884</in>
                                <out>21962</out>
                            </clipitem>
                            <clipitem frameBlend="FALSE" id="clipitem-165">
                                <file id="file-5"/>
                                <name>vClip79</name>
                                <rate>
                                    <timebase>24</timebase>
                                    <ntsc>FALSE</ntsc>
                                </rate>
                                <rate>
                                    <timebase>24</timebase>
                                    <ntsc>FALSE</ntsc>
                                </rate>
                                <duration>12</duration>
                                <start>24490</start>
                                <end>24502</end>
                                <in>24490</in>
                                <out>24502</out>
                            </clipitem>
                            <clipitem frameBlend="FALSE" id="clipitem-166">
                                <file id="file-5"/>
                                <name>vClip80</name>
                                <rate>
                                    <timebase>24</timebase>
                                    <ntsc>FALSE</ntsc>
                                </rate>
                                <rate>
                                    <timebase>24</timebase>
                                    <ntsc>FALSE</ntsc>
                                </rate>
                                <duration>416</duration>
                                <start>24903</start>
                                <end>25319</end>
                                <in>24903</in>
                                <out>25319</out>
                            </clipitem>
                            <clipitem frameBlend="FALSE" id="clipitem-167">
                                <file id="file-5"/>
                                <name>vClip81</name>
                                <rate>
                                    <timebase>24</timebase>
                                    <ntsc>FALSE</ntsc>
                                </rate>
                                <rate>
                                    <timebase>24</timebase>
                                    <ntsc>FALSE</ntsc>
                                </rate>
                                <duration>590</duration>
                                <start>26576</start>
                                <end>27166</end>
                                <in>26576</in>
                                <out>27166</out>
                            </clipitem>
                            <clipitem frameBlend="FALSE" id="clipitem-168">
                                <file id="file-5"/>
                                <name>vClip82</name>
                                <rate>
                                    <timebase>24</timebase>
                                    <ntsc>FALSE</ntsc>
                                </rate>
                                <rate>
                                    <timebase>24</timebase>
                                    <ntsc>FALSE</ntsc>
                                </rate>
                                <duration>1207</duration>
                                <start>27251</start>
                                <end>28459</end>
                                <in>27251</in>
                                <out>28459</out>
                            </clipitem>
                            <clipitem frameBlend="FALSE" id="clipitem-169">
                                <file id="file-5"/>
                                <name>vClip83</name>
                                <rate>
                                    <timebase>24</timebase>
                                    <ntsc>FALSE</ntsc>
                                </rate>
                                <rate>
                                    <timebase>24</timebase>
                                    <ntsc>FALSE</ntsc>
                                </rate>
                                <duration>162</duration>
                                <start>28831</start>
                                <end>28993</end>
                                <in>28831</in>
                                <out>28993</out>
                            </clipitem>
                            <clipitem frameBlend="FALSE" id="clipitem-170">
                                <file id="file-5"/>
                                <name>vClip84</name>
                                <rate>
                                    <timebase>24</timebase>
                                    <ntsc>FALSE</ntsc>
                                </rate>
                                <rate>
                                    <timebase>24</timebase>
                                    <ntsc>FALSE</ntsc>
                                </rate>
                                <duration>155</duration>
                                <start>30049</start>
                                <end>30204</end>
                                <in>30049</in>
                                <out>30204</out>
                            </clipitem>
                            <clipitem frameBlend="FALSE" id="clipitem-171">
                                <file id="file-5"/>
                                <name>vClip85</name>
                                <rate>
                                    <timebase>24</timebase>
                                    <ntsc>FALSE</ntsc>
                                </rate>
                                <rate>
                                    <timebase>24</timebase>
                                    <ntsc>FALSE</ntsc>
                                </rate>
                                <duration>86</duration>
                                <start>30588</start>
                                <end>30674</end>
                                <in>30588</in>
                                <out>30674</out>
                            </clipitem>
                            <clipitem frameBlend="FALSE" id="clipitem-172">
                                <file id="file-5"/>
                                <name>vClip86</name>
                                <rate>
                                    <timebase>24</timebase>
                                    <ntsc>FALSE</ntsc>
                                </rate>
                                <rate>
                                    <timebase>24</timebase>
                                    <ntsc>FALSE</ntsc>
                                </rate>
                                <duration>5</duration>
                                <start>31180</start>
                                <end>31184</end>
                                <in>31180</in>
                                <out>31184</out>
                            </clipitem>
                        </track>
                    </video>
                    <audio>
                        <track>
                            <clipitem frameBlend="FALSE" id="clipitem-1">
                                <file id="file-1">
                                    <pathurl>Osi Audio Extracted.wav</pathurl>
                                    <name>Osi Audio Extracted.wav</name>
                                    <rate>
                                        <timebase>24</timebase>
                                        <ntsc>FALSE</ntsc>
                                    </rate>
                                    <duration>15693696</duration>
                                    <timecode>
                                        <rate>
                                            <timebase>24</timebase>
                                            <ntsc>FALSE</ntsc>
                                        </rate>
                                        <string>00:00:00:00</string>
                                        <frame>0</frame>
                                        <displayformat>NDF</displayformat>
                                    </timecode>
                                    <media>
                                        <audio/>
                                    </media>
                                </file>
                                <name>aClip1</name>
                                <rate>
                                    <timebase>24</timebase>
                                    <ntsc>FALSE</ntsc>
                                </rate>
                                <rate>
                                    <timebase>24</timebase>
                                    <ntsc>FALSE</ntsc>
                                </rate>
                                <duration>140</duration>
                                <start>120</start>
                                <end>260</end>
                                <in>120</in>
                                <out>260</out>
                            </clipitem>
                            <clipitem frameBlend="FALSE" id="clipitem-2">
                                <file id="file-1"/>
                                <name>aClip2</name>
                                <rate>
                                    <timebase>24</timebase>
                                    <ntsc>FALSE</ntsc>
                                </rate>
                                <rate>
                                    <timebase>24</timebase>
                                    <ntsc>FALSE</ntsc>
                                </rate>
                                <duration>1646</duration>
                                <start>1254</start>
                                <end>2900</end>
                                <in>1254</in>
                                <out>2900</out>
                            </clipitem>
                            <clipitem frameBlend="FALSE" id="clipitem-3">
                                <file id="file-1"/>
                                <name>aClip3</name>
                                <rate>
                                    <timebase>24</timebase>
                                    <ntsc>FALSE</ntsc>
                                </rate>
                                <rate>
                                    <timebase>24</timebase>
                                    <ntsc>FALSE</ntsc>
                                </rate>
                                <duration>580</duration>
                                <start>3607</start>
                                <end>4187</end>
                                <in>3607</in>
                                <out>4187</out>
                            </clipitem>
                            <clipitem frameBlend="FALSE" id="clipitem-4">
                                <file id="file-1"/>
                                <name>aClip4</name>
                                <rate>
                                    <timebase>24</timebase>
                                    <ntsc>FALSE</ntsc>
                                </rate>
                                <rate>
                                    <timebase>24</timebase>
                                    <ntsc>FALSE</ntsc>
                                </rate>
                                <duration>798</duration>
                                <start>7934</start>
                                <end>8732</end>
                                <in>7934</in>
                                <out>8732</out>
                            </clipitem>
                            <clipitem frameBlend="FALSE" id="clipitem-5">
                                <file id="file-1"/>
                                <name>aClip5</name>
                                <rate>
                                    <timebase>24</timebase>
                                    <ntsc>FALSE</ntsc>
                                </rate>
                                <rate>
                                    <timebase>24</timebase>
                                    <ntsc>FALSE</ntsc>
                                </rate>
                                <duration>287</duration>
                                <start>11891</start>
                                <end>12178</end>
                                <in>11891</in>
                                <out>12178</out>
                            </clipitem>
                            <clipitem frameBlend="FALSE" id="clipitem-6">
                                <file id="file-1"/>
                                <name>aClip6</name>
                                <rate>
                                    <timebase>24</timebase>
                                    <ntsc>FALSE</ntsc>
                                </rate>
                                <rate>
                                    <timebase>24</timebase>
                                    <ntsc>FALSE</ntsc>
                                </rate>
                                <duration>102</duration>
                                <start>12199</start>
                                <end>12301</end>
                                <in>12199</in>
                                <out>12301</out>
                            </clipitem>
                            <clipitem frameBlend="FALSE" id="clipitem-7">
                                <file id="file-1"/>
                                <name>aClip7</name>
                                <rate>
                                    <timebase>24</timebase>
                                    <ntsc>FALSE</ntsc>
                                </rate>
                                <rate>
                                    <timebase>24</timebase>
                                    <ntsc>FALSE</ntsc>
                                </rate>
                                <duration>62</duration>
                                <start>15166</start>
                                <end>15228</end>
                                <in>15166</in>
                                <out>15228</out>
                            </clipitem>
                            <clipitem frameBlend="FALSE" id="clipitem-8">
                                <file id="file-1"/>
                                <name>aClip8</name>
                                <rate>
                                    <timebase>24</timebase>
                                    <ntsc>FALSE</ntsc>
                                </rate>
                                <rate>
                                    <timebase>24</timebase>
                                    <ntsc>FALSE</ntsc>
                                </rate>
                                <duration>403</duration>
                                <start>16130</start>
                                <end>16533</end>
                                <in>16130</in>
                                <out>16533</out>
                            </clipitem>
                            <clipitem frameBlend="FALSE" id="clipitem-9">
                                <file id="file-1"/>
                                <name>aClip9</name>
                                <rate>
                                    <timebase>24</timebase>
                                    <ntsc>FALSE</ntsc>
                                </rate>
                                <rate>
                                    <timebase>24</timebase>
                                    <ntsc>FALSE</ntsc>
                                </rate>
                                <duration>161</duration>
                                <start>17197</start>
                                <end>17358</end>
                                <in>17197</in>
                                <out>17358</out>
                            </clipitem>
                            <clipitem frameBlend="FALSE" id="clipitem-10">
                                <file id="file-1"/>
                                <name>aClip10</name>
                                <rate>
                                    <timebase>24</timebase>
                                    <ntsc>FALSE</ntsc>
                                </rate>
                                <rate>
                                    <timebase>24</timebase>
                                    <ntsc>FALSE</ntsc>
                                </rate>
                                <duration>211</duration>
                                <start>17758</start>
                                <end>17969</end>
                                <in>17758</in>
                                <out>17969</out>
                            </clipitem>
                            <clipitem frameBlend="FALSE" id="clipitem-11">
                                <file id="file-1"/>
                                <name>aClip11</name>
                                <rate>
                                    <timebase>24</timebase>
                                    <ntsc>FALSE</ntsc>
                                </rate>
                                <rate>
                                    <timebase>24</timebase>
                                    <ntsc>FALSE</ntsc>
                                </rate>
                                <duration>165</duration>
                                <start>18087</start>
                                <end>18252</end>
                                <in>18087</in>
                                <out>18252</out>
                            </clipitem>
                            <clipitem frameBlend="FALSE" id="clipitem-12">
                                <file id="file-1"/>
                                <name>aClip12</name>
                                <rate>
                                    <timebase>24</timebase>
                                    <ntsc>FALSE</ntsc>
                                </rate>
                                <rate>
                                    <timebase>24</timebase>
                                    <ntsc>FALSE</ntsc>
                                </rate>
                                <duration>120</duration>
                                <start>18762</start>
                                <end>18882</end>
                                <in>18762</in>
                                <out>18882</out>
                            </clipitem>
                            <clipitem frameBlend="FALSE" id="clipitem-13">
                                <file id="file-1"/>
                                <name>aClip13</name>
                                <rate>
                                    <timebase>24</timebase>
                                    <ntsc>FALSE</ntsc>
                                </rate>
                                <rate>
                                    <timebase>24</timebase>
                                    <ntsc>FALSE</ntsc>
                                </rate>
                                <duration>61</duration>
                                <start>20364</start>
                                <end>20425</end>
                                <in>20364</in>
                                <out>20425</out>
                            </clipitem>
                            <clipitem frameBlend="FALSE" id="clipitem-14">
                                <file id="file-1"/>
                                <name>aClip14</name>
                                <rate>
                                    <timebase>24</timebase>
                                    <ntsc>FALSE</ntsc>
                                </rate>
                                <rate>
                                    <timebase>24</timebase>
                                    <ntsc>FALSE</ntsc>
                                </rate>
                                <duration>344</duration>
                                <start>20539</start>
                                <end>20883</end>
                                <in>20539</in>
                                <out>20883</out>
                            </clipitem>
                            <clipitem frameBlend="FALSE" id="clipitem-15">
                                <file id="file-1"/>
                                <name>aClip15</name>
                                <rate>
                                    <timebase>24</timebase>
                                    <ntsc>FALSE</ntsc>
                                </rate>
                                <rate>
                                    <timebase>24</timebase>
                                    <ntsc>FALSE</ntsc>
                                </rate>
                                <duration>2293</duration>
                                <start>21962</start>
                                <end>24256</end>
                                <in>21962</in>
                                <out>24256</out>
                            </clipitem>
                            <clipitem frameBlend="FALSE" id="clipitem-16">
                                <file id="file-1"/>
                                <name>aClip16</name>
                                <rate>
                                    <timebase>24</timebase>
                                    <ntsc>FALSE</ntsc>
                                </rate>
                                <rate>
                                    <timebase>24</timebase>
                                    <ntsc>FALSE</ntsc>
                                </rate>
                                <duration>433</duration>
                                <start>25319</start>
                                <end>25753</end>
                                <in>25319</in>
                                <out>25753</out>
                            </clipitem>
                            <clipitem frameBlend="FALSE" id="clipitem-17">
                                <file id="file-1"/>
                                <name>aClip17</name>
                                <rate>
                                    <timebase>24</timebase>
                                    <ntsc>FALSE</ntsc>
                                </rate>
                                <rate>
                                    <timebase>24</timebase>
                                    <ntsc>FALSE</ntsc>
                                </rate>
                                <duration>85</duration>
                                <start>27166</start>
                                <end>27251</end>
                                <in>27166</in>
                                <out>27251</out>
                            </clipitem>
                            <clipitem frameBlend="FALSE" id="clipitem-18">
                                <file id="file-1"/>
                                <name>aClip18</name>
                                <rate>
                                    <timebase>24</timebase>
                                    <ntsc>FALSE</ntsc>
                                </rate>
                                <rate>
                                    <timebase>24</timebase>
                                    <ntsc>FALSE</ntsc>
                                </rate>
                                <duration>39</duration>
                                <start>30010</start>
                                <end>30049</end>
                                <in>30010</in>
                                <out>30049</out>
                            </clipitem>
                            <clipitem frameBlend="FALSE" id="clipitem-19">
                                <file id="file-1"/>
                                <name>aClip19</name>
                                <rate>
                                    <timebase>24</timebase>
                                    <ntsc>FALSE</ntsc>
                                </rate>
                                <rate>
                                    <timebase>24</timebase>
                                    <ntsc>FALSE</ntsc>
                                </rate>
                                <duration>208</duration>
                                <start>30380</start>
                                <end>30588</end>
                                <in>30380</in>
                                <out>30588</out>
                            </clipitem>
                            <clipitem frameBlend="FALSE" id="clipitem-20">
                                <file id="file-1"/>
                                <name>aClip20</name>
                                <rate>
                                    <timebase>24</timebase>
                                    <ntsc>FALSE</ntsc>
                                </rate>
                                <rate>
                                    <timebase>24</timebase>
                                    <ntsc>FALSE</ntsc>
                                </rate>
                                <duration>475</duration>
                                <start>30674</start>
                                <end>31150</end>
                                <in>30674</in>
                                <out>31150</out>
                            </clipitem>
                        </track>
                        <track>
                            <clipitem frameBlend="FALSE" id="clipitem-41">
                                <file id="file-3">
                                    <pathurl>Scott Audio Extracted.wav</pathurl>
                                    <name>Scott Audio Extracted.wav</name>
                                    <rate>
                                        <timebase>24</timebase>
                                        <ntsc>FALSE</ntsc>
                                    </rate>
                                    <duration>15693696</duration>
                                    <timecode>
                                        <rate>
                                            <timebase>24</timebase>
                                            <ntsc>FALSE</ntsc>
                                        </rate>
                                        <string>00:00:00:00</string>
                                        <frame>0</frame>
                                        <displayformat>NDF</displayformat>
                                    </timecode>
                                    <media>
                                        <audio/>
                                    </media>
                                </file>
                                <name>aClip21</name>
                                <rate>
                                    <timebase>24</timebase>
                                    <ntsc>FALSE</ntsc>
                                </rate>
                                <rate>
                                    <timebase>24</timebase>
                                    <ntsc>FALSE</ntsc>
                                </rate>
                                <duration>318</duration>
                                <start>717</start>
                                <end>1035</end>
                                <in>717</in>
                                <out>1035</out>
                            </clipitem>
                            <clipitem frameBlend="FALSE" id="clipitem-42">
                                <file id="file-3"/>
                                <name>aClip22</name>
                                <rate>
                                    <timebase>24</timebase>
                                    <ntsc>FALSE</ntsc>
                                </rate>
                                <rate>
                                    <timebase>24</timebase>
                                    <ntsc>FALSE</ntsc>
                                </rate>
                                <duration>131</duration>
                                <start>1062</start>
                                <end>1193</end>
                                <in>1062</in>
                                <out>1193</out>
                            </clipitem>
                            <clipitem frameBlend="FALSE" id="clipitem-43">
                                <file id="file-3"/>
                                <name>aClip23</name>
                                <rate>
                                    <timebase>24</timebase>
                                    <ntsc>FALSE</ntsc>
                                </rate>
                                <rate>
                                    <timebase>24</timebase>
                                    <ntsc>FALSE</ntsc>
                                </rate>
                                <duration>707</duration>
                                <start>2900</start>
                                <end>3607</end>
                                <in>2900</in>
                                <out>3607</out>
                            </clipitem>
                            <clipitem frameBlend="FALSE" id="clipitem-44">
                                <file id="file-3"/>
                                <name>aClip24</name>
                                <rate>
                                    <timebase>24</timebase>
                                    <ntsc>FALSE</ntsc>
                                </rate>
                                <rate>
                                    <timebase>24</timebase>
                                    <ntsc>FALSE</ntsc>
                                </rate>
                                <duration>69</duration>
                                <start>6091</start>
                                <end>6161</end>
                                <in>6091</in>
                                <out>6161</out>
                            </clipitem>
                            <clipitem frameBlend="FALSE" id="clipitem-45">
                                <file id="file-3"/>
                                <name>aClip25</name>
                                <rate>
                                    <timebase>24</timebase>
                                    <ntsc>FALSE</ntsc>
                                </rate>
                                <rate>
                                    <timebase>24</timebase>
                                    <ntsc>FALSE</ntsc>
                                </rate>
                                <duration>20</duration>
                                <start>12178</start>
                                <end>12199</end>
                                <in>12178</in>
                                <out>12199</out>
                            </clipitem>
                            <clipitem frameBlend="FALSE" id="clipitem-46">
                                <file id="file-3"/>
                                <name>aClip26</name>
                                <rate>
                                    <timebase>24</timebase>
                                    <ntsc>FALSE</ntsc>
                                </rate>
                                <rate>
                                    <timebase>24</timebase>
                                    <ntsc>FALSE</ntsc>
                                </rate>
                                <duration>50</duration>
                                <start>12913</start>
                                <end>12963</end>
                                <in>12913</in>
                                <out>12963</out>
                            </clipitem>
                            <clipitem frameBlend="FALSE" id="clipitem-47">
                                <file id="file-3"/>
                                <name>aClip27</name>
                                <rate>
                                    <timebase>24</timebase>
                                    <ntsc>FALSE</ntsc>
                                </rate>
                                <rate>
                                    <timebase>24</timebase>
                                    <ntsc>FALSE</ntsc>
                                </rate>
                                <duration>99</duration>
                                <start>14850</start>
                                <end>14948</end>
                                <in>14850</in>
                                <out>14948</out>
                            </clipitem>
                            <clipitem frameBlend="FALSE" id="clipitem-48">
                                <file id="file-3"/>
                                <name>aClip28</name>
                                <rate>
                                    <timebase>24</timebase>
                                    <ntsc>FALSE</ntsc>
                                </rate>
                                <rate>
                                    <timebase>24</timebase>
                                    <ntsc>FALSE</ntsc>
                                </rate>
                                <duration>153</duration>
                                <start>15228</start>
                                <end>15382</end>
                                <in>15228</in>
                                <out>15382</out>
                            </clipitem>
                            <clipitem frameBlend="FALSE" id="clipitem-49">
                                <file id="file-3"/>
                                <name>aClip29</name>
                                <rate>
                                    <timebase>24</timebase>
                                    <ntsc>FALSE</ntsc>
                                </rate>
                                <rate>
                                    <timebase>24</timebase>
                                    <ntsc>FALSE</ntsc>
                                </rate>
                                <duration>398</duration>
                                <start>16533</start>
                                <end>16932</end>
                                <in>16533</in>
                                <out>16932</out>
                            </clipitem>
                            <clipitem frameBlend="FALSE" id="clipitem-50">
                                <file id="file-3"/>
                                <name>aClip30</name>
                                <rate>
                                    <timebase>24</timebase>
                                    <ntsc>FALSE</ntsc>
                                </rate>
                                <rate>
                                    <timebase>24</timebase>
                                    <ntsc>FALSE</ntsc>
                                </rate>
                                <duration>130</duration>
                                <start>17068</start>
                                <end>17197</end>
                                <in>17068</in>
                                <out>17197</out>
                            </clipitem>
                            <clipitem frameBlend="FALSE" id="clipitem-51">
                                <file id="file-3"/>
                                <name>aClip31</name>
                                <rate>
                                    <timebase>24</timebase>
                                    <ntsc>FALSE</ntsc>
                                </rate>
                                <rate>
                                    <timebase>24</timebase>
                                    <ntsc>FALSE</ntsc>
                                </rate>
                                <duration>66</duration>
                                <start>17358</start>
                                <end>17424</end>
                                <in>17358</in>
                                <out>17424</out>
                            </clipitem>
                            <clipitem frameBlend="FALSE" id="clipitem-52">
                                <file id="file-3"/>
                                <name>aClip32</name>
                                <rate>
                                    <timebase>24</timebase>
                                    <ntsc>FALSE</ntsc>
                                </rate>
                                <rate>
                                    <timebase>24</timebase>
                                    <ntsc>FALSE</ntsc>
                                </rate>
                                <duration>118</duration>
                                <start>17969</start>
                                <end>18087</end>
                                <in>17969</in>
                                <out>18087</out>
                            </clipitem>
                            <clipitem frameBlend="FALSE" id="clipitem-53">
                                <file id="file-3"/>
                                <name>aClip33</name>
                                <rate>
                                    <timebase>24</timebase>
                                    <ntsc>FALSE</ntsc>
                                </rate>
                                <rate>
                                    <timebase>24</timebase>
                                    <ntsc>FALSE</ntsc>
                                </rate>
                                <duration>397</duration>
                                <start>21488</start>
                                <end>21884</end>
                                <in>21488</in>
                                <out>21884</out>
                            </clipitem>
                            <clipitem frameBlend="FALSE" id="clipitem-54">
                                <file id="file-3"/>
                                <name>aClip34</name>
                                <rate>
                                    <timebase>24</timebase>
                                    <ntsc>FALSE</ntsc>
                                </rate>
                                <rate>
                                    <timebase>24</timebase>
                                    <ntsc>FALSE</ntsc>
                                </rate>
                                <duration>235</duration>
                                <start>24256</start>
                                <end>24490</end>
                                <in>24256</in>
                                <out>24490</out>
                            </clipitem>
                            <clipitem frameBlend="FALSE" id="clipitem-55">
                                <file id="file-3"/>
                                <name>aClip35</name>
                                <rate>
                                    <timebase>24</timebase>
                                    <ntsc>FALSE</ntsc>
                                </rate>
                                <rate>
                                    <timebase>24</timebase>
                                    <ntsc>FALSE</ntsc>
                                </rate>
                                <duration>290</duration>
                                <start>24613</start>
                                <end>24903</end>
                                <in>24613</in>
                                <out>24903</out>
                            </clipitem>
                            <clipitem frameBlend="FALSE" id="clipitem-56">
                                <file id="file-3"/>
                                <name>aClip36</name>
                                <rate>
                                    <timebase>24</timebase>
                                    <ntsc>FALSE</ntsc>
                                </rate>
                                <rate>
                                    <timebase>24</timebase>
                                    <ntsc>FALSE</ntsc>
                                </rate>
                                <duration>837</duration>
                                <start>29173</start>
                                <end>30010</end>
                                <in>29173</in>
                                <out>30010</out>
                            </clipitem>
                            <clipitem frameBlend="FALSE" id="clipitem-57">
                                <file id="file-3"/>
                                <name>aClip37</name>
                                <rate>
                                    <timebase>24</timebase>
                                    <ntsc>FALSE</ntsc>
                                </rate>
                                <rate>
                                    <timebase>24</timebase>
                                    <ntsc>FALSE</ntsc>
                                </rate>
                                <duration>176</duration>
                                <start>30204</start>
                                <end>30380</end>
                                <in>30204</in>
                                <out>30380</out>
                            </clipitem>
                            <clipitem frameBlend="FALSE" id="clipitem-58">
                                <file id="file-3"/>
                                <name>aClip38</name>
                                <rate>
                                    <timebase>24</timebase>
                                    <ntsc>FALSE</ntsc>
                                </rate>
                                <rate>
                                    <timebase>24</timebase>
                                    <ntsc>FALSE</ntsc>
                                </rate>
                                <duration>30</duration>
                                <start>31150</start>
                                <end>31180</end>
                                <in>31150</in>
                                <out>31180</out>
                            </clipitem>
                        </track>
                        <track>
                            <clipitem frameBlend="FALSE" id="clipitem-77">
                                <file id="file-4">
                                    <pathurl>Chukwu Audio Extracted.wav</pathurl>
                                    <name>Chukwu Audio Extracted.wav</name>
                                    <rate>
                                        <timebase>24</timebase>
                                        <ntsc>FALSE</ntsc>
                                    </rate>
                                    <duration>15693696</duration>
                                    <timecode>
                                        <rate>
                                            <timebase>24</timebase>
                                            <ntsc>FALSE</ntsc>
                                        </rate>
                                        <string>00:00:00:00</string>
                                        <frame>0</frame>
                                        <displayformat>NDF</displayformat>
                                    </timecode>
                                    <media>
                                        <audio/>
                                    </media>
                                </file>
                                <name>aClip39</name>
                                <rate>
                                    <timebase>24</timebase>
                                    <ntsc>FALSE</ntsc>
                                </rate>
                                <rate>
                                    <timebase>24</timebase>
                                    <ntsc>FALSE</ntsc>
                                </rate>
                                <duration>297</duration>
                                <start>260</start>
                                <end>557</end>
                                <in>260</in>
                                <out>557</out>
                            </clipitem>
                            <clipitem frameBlend="FALSE" id="clipitem-78">
                                <file id="file-4"/>
                                <name>aClip40</name>
                                <rate>
                                    <timebase>24</timebase>
                                    <ntsc>FALSE</ntsc>
                                </rate>
                                <rate>
                                    <timebase>24</timebase>
                                    <ntsc>FALSE</ntsc>
                                </rate>
                                <duration>27</duration>
                                <start>1035</start>
                                <end>1062</end>
                                <in>1035</in>
                                <out>1062</out>
                            </clipitem>
                            <clipitem frameBlend="FALSE" id="clipitem-79">
                                <file id="file-4"/>
                                <name>aClip41</name>
                                <rate>
                                    <timebase>24</timebase>
                                    <ntsc>FALSE</ntsc>
                                </rate>
                                <rate>
                                    <timebase>24</timebase>
                                    <ntsc>FALSE</ntsc>
                                </rate>
                                <duration>61</duration>
                                <start>1193</start>
                                <end>1254</end>
                                <in>1193</in>
                                <out>1254</out>
                            </clipitem>
                            <clipitem frameBlend="FALSE" id="clipitem-80">
                                <file id="file-4"/>
                                <name>aClip42</name>
                                <rate>
                                    <timebase>24</timebase>
                                    <ntsc>FALSE</ntsc>
                                </rate>
                                <rate>
                                    <timebase>24</timebase>
                                    <ntsc>FALSE</ntsc>
                                </rate>
                                <duration>144</duration>
                                <start>5947</start>
                                <end>6091</end>
                                <in>5947</in>
                                <out>6091</out>
                            </clipitem>
                            <clipitem frameBlend="FALSE" id="clipitem-81">
                                <file id="file-4"/>
                                <name>aClip43</name>
                                <rate>
                                    <timebase>24</timebase>
                                    <ntsc>FALSE</ntsc>
                                </rate>
                                <rate>
                                    <timebase>24</timebase>
                                    <ntsc>FALSE</ntsc>
                                </rate>
                                <duration>641</duration>
                                <start>6161</start>
                                <end>6802</end>
                                <in>6161</in>
                                <out>6802</out>
                            </clipitem>
                            <clipitem frameBlend="FALSE" id="clipitem-82">
                                <file id="file-4"/>
                                <name>aClip44</name>
                                <rate>
                                    <timebase>24</timebase>
                                    <ntsc>FALSE</ntsc>
                                </rate>
                                <rate>
                                    <timebase>24</timebase>
                                    <ntsc>FALSE</ntsc>
                                </rate>
                                <duration>149</duration>
                                <start>6900</start>
                                <end>7049</end>
                                <in>6900</in>
                                <out>7049</out>
                            </clipitem>
                            <clipitem frameBlend="FALSE" id="clipitem-83">
                                <file id="file-4"/>
                                <name>aClip45</name>
                                <rate>
                                    <timebase>24</timebase>
                                    <ntsc>FALSE</ntsc>
                                </rate>
                                <rate>
                                    <timebase>24</timebase>
                                    <ntsc>FALSE</ntsc>
                                </rate>
                                <duration>1097</duration>
                                <start>8882</start>
                                <end>9980</end>
                                <in>8882</in>
                                <out>9980</out>
                            </clipitem>
                            <clipitem frameBlend="FALSE" id="clipitem-84">
                                <file id="file-4"/>
                                <name>aClip46</name>
                                <rate>
                                    <timebase>24</timebase>
                                    <ntsc>FALSE</ntsc>
                                </rate>
                                <rate>
                                    <timebase>24</timebase>
                                    <ntsc>FALSE</ntsc>
                                </rate>
                                <duration>99</duration>
                                <start>10888</start>
                                <end>10987</end>
                                <in>10888</in>
                                <out>10987</out>
                            </clipitem>
                            <clipitem frameBlend="FALSE" id="clipitem-85">
                                <file id="file-4"/>
                                <name>aClip47</name>
                                <rate>
                                    <timebase>24</timebase>
                                    <ntsc>FALSE</ntsc>
                                </rate>
                                <rate>
                                    <timebase>24</timebase>
                                    <ntsc>FALSE</ntsc>
                                </rate>
                                <duration>612</duration>
                                <start>12301</start>
                                <end>12913</end>
                                <in>12301</in>
                                <out>12913</out>
                            </clipitem>
                            <clipitem frameBlend="FALSE" id="clipitem-86">
                                <file id="file-4"/>
                                <name>aClip48</name>
                                <rate>
                                    <timebase>24</timebase>
                                    <ntsc>FALSE</ntsc>
                                </rate>
                                <rate>
                                    <timebase>24</timebase>
                                    <ntsc>FALSE</ntsc>
                                </rate>
                                <duration>1006</duration>
                                <start>12963</start>
                                <end>13969</end>
                                <in>12963</in>
                                <out>13969</out>
                            </clipitem>
                            <clipitem frameBlend="FALSE" id="clipitem-87">
                                <file id="file-4"/>
                                <name>aClip49</name>
                                <rate>
                                    <timebase>24</timebase>
                                    <ntsc>FALSE</ntsc>
                                </rate>
                                <rate>
                                    <timebase>24</timebase>
                                    <ntsc>FALSE</ntsc>
                                </rate>
                                <duration>458</duration>
                                <start>14156</start>
                                <end>14613</end>
                                <in>14156</in>
                                <out>14613</out>
                            </clipitem>
                            <clipitem frameBlend="FALSE" id="clipitem-88">
                                <file id="file-4"/>
                                <name>aClip50</name>
                                <rate>
                                    <timebase>24</timebase>
                                    <ntsc>FALSE</ntsc>
                                </rate>
                                <rate>
                                    <timebase>24</timebase>
                                    <ntsc>FALSE</ntsc>
                                </rate>
                                <duration>70</duration>
                                <start>15096</start>
                                <end>15166</end>
                                <in>15096</in>
                                <out>15166</out>
                            </clipitem>
                            <clipitem frameBlend="FALSE" id="clipitem-89">
                                <file id="file-4"/>
                                <name>aClip51</name>
                                <rate>
                                    <timebase>24</timebase>
                                    <ntsc>FALSE</ntsc>
                                </rate>
                                <rate>
                                    <timebase>24</timebase>
                                    <ntsc>FALSE</ntsc>
                                </rate>
                                <duration>109</duration>
                                <start>16958</start>
                                <end>17068</end>
                                <in>16958</in>
                                <out>17068</out>
                            </clipitem>
                            <clipitem frameBlend="FALSE" id="clipitem-90">
                                <file id="file-4"/>
                                <name>aClip52</name>
                                <rate>
                                    <timebase>24</timebase>
                                    <ntsc>FALSE</ntsc>
                                </rate>
                                <rate>
                                    <timebase>24</timebase>
                                    <ntsc>FALSE</ntsc>
                                </rate>
                                <duration>156</duration>
                                <start>17424</start>
                                <end>17580</end>
                                <in>17424</in>
                                <out>17580</out>
                            </clipitem>
                            <clipitem frameBlend="FALSE" id="clipitem-91">
                                <file id="file-4"/>
                                <name>aClip53</name>
                                <rate>
                                    <timebase>24</timebase>
                                    <ntsc>FALSE</ntsc>
                                </rate>
                                <rate>
                                    <timebase>24</timebase>
                                    <ntsc>FALSE</ntsc>
                                </rate>
                                <duration>330</duration>
                                <start>18252</start>
                                <end>18582</end>
                                <in>18252</in>
                                <out>18582</out>
                            </clipitem>
                            <clipitem frameBlend="FALSE" id="clipitem-92">
                                <file id="file-4"/>
                                <name>aClip54</name>
                                <rate>
                                    <timebase>24</timebase>
                                    <ntsc>FALSE</ntsc>
                                </rate>
                                <rate>
                                    <timebase>24</timebase>
                                    <ntsc>FALSE</ntsc>
                                </rate>
                                <duration>82</duration>
                                <start>18680</start>
                                <end>18762</end>
                                <in>18680</in>
                                <out>18762</out>
                            </clipitem>
                            <clipitem frameBlend="FALSE" id="clipitem-93">
                                <file id="file-4"/>
                                <name>aClip55</name>
                                <rate>
                                    <timebase>24</timebase>
                                    <ntsc>FALSE</ntsc>
                                </rate>
                                <rate>
                                    <timebase>24</timebase>
                                    <ntsc>FALSE</ntsc>
                                </rate>
                                <duration>668</duration>
                                <start>18882</start>
                                <end>19550</end>
                                <in>18882</in>
                                <out>19550</out>
                            </clipitem>
                            <clipitem frameBlend="FALSE" id="clipitem-94">
                                <file id="file-4"/>
                                <name>aClip56</name>
                                <rate>
                                    <timebase>24</timebase>
                                    <ntsc>FALSE</ntsc>
                                </rate>
                                <rate>
                                    <timebase>24</timebase>
                                    <ntsc>FALSE</ntsc>
                                </rate>
                                <duration>111</duration>
                                <start>24502</start>
                                <end>24613</end>
                                <in>24502</in>
                                <out>24613</out>
                            </clipitem>
                            <clipitem frameBlend="FALSE" id="clipitem-95">
                                <file id="file-4"/>
                                <name>aClip57</name>
                                <rate>
                                    <timebase>24</timebase>
                                    <ntsc>FALSE</ntsc>
                                </rate>
                                <rate>
                                    <timebase>24</timebase>
                                    <ntsc>FALSE</ntsc>
                                </rate>
                                <duration>824</duration>
                                <start>25753</start>
                                <end>26576</end>
                                <in>25753</in>
                                <out>26576</out>
                            </clipitem>
                            <clipitem frameBlend="FALSE" id="clipitem-96">
                                <file id="file-4"/>
                                <name>aClip58</name>
                                <rate>
                                    <timebase>24</timebase>
                                    <ntsc>FALSE</ntsc>
                                </rate>
                                <rate>
                                    <timebase>24</timebase>
                                    <ntsc>FALSE</ntsc>
                                </rate>
                                <duration>372</duration>
                                <start>28459</start>
                                <end>28831</end>
                                <in>28459</in>
                                <out>28831</out>
                            </clipitem>
                            <clipitem frameBlend="FALSE" id="clipitem-97">
                                <file id="file-4"/>
                                <name>aClip59</name>
                                <rate>
                                    <timebase>24</timebase>
                                    <ntsc>FALSE</ntsc>
                                </rate>
                                <rate>
                                    <timebase>24</timebase>
                                    <ntsc>FALSE</ntsc>
                                </rate>
                                <duration>180</duration>
                                <start>28993</start>
                                <end>29173</end>
                                <in>28993</in>
                                <out>29173</out>
                            </clipitem>
                            <clipitem frameBlend="FALSE" id="clipitem-98">
                                <file id="file-4"/>
                                <name>aClip60</name>
                                <rate>
                                    <timebase>24</timebase>
                                    <ntsc>FALSE</ntsc>
                                </rate>
                                <rate>
                                    <timebase>24</timebase>
                                    <ntsc>FALSE</ntsc>
                                </rate>
                                <duration>83</duration>
                                <start>31184</start>
                                <end>31267</end>
                                <in>31184</in>
                                <out>31267</out>
                            </clipitem>
                        </track>
                        <track>
                            <clipitem frameBlend="FALSE" id="clipitem-121">
                                <file id="file-6">
                                    <pathurl>Crystal Audio Extracted.wav</pathurl>
                                    <name>Crystal Audio Extracted.wav</name>
                                    <rate>
                                        <timebase>24</timebase>
                                        <ntsc>FALSE</ntsc>
                                    </rate>
                                    <duration>15693696</duration>
                                    <timecode>
                                        <rate>
                                            <timebase>24</timebase>
                                            <ntsc>FALSE</ntsc>
                                        </rate>
                                        <string>00:00:00:00</string>
                                        <frame>0</frame>
                                        <displayformat>NDF</displayformat>
                                    </timecode>
                                    <media>
                                        <audio/>
                                    </media>
                                </file>
                                <name>aClip61</name>
                                <rate>
                                    <timebase>24</timebase>
                                    <ntsc>FALSE</ntsc>
                                </rate>
                                <rate>
                                    <timebase>24</timebase>
                                    <ntsc>FALSE</ntsc>
                                </rate>
                                <duration>160</duration>
                                <start>557</start>
                                <end>717</end>
                                <in>557</in>
                                <out>717</out>
                            </clipitem>
                            <clipitem frameBlend="FALSE" id="clipitem-122">
                                <file id="file-6"/>
                                <name>aClip62</name>
                                <rate>
                                    <timebase>24</timebase>
                                    <ntsc>FALSE</ntsc>
                                </rate>
                                <rate>
                                    <timebase>24</timebase>
                                    <ntsc>FALSE</ntsc>
                                </rate>
                                <duration>1760</duration>
                                <start>4187</start>
                                <end>5947</end>
                                <in>4187</in>
                                <out>5947</out>
                            </clipitem>
                            <clipitem frameBlend="FALSE" id="clipitem-123">
                                <file id="file-6"/>
                                <name>aClip63</name>
                                <rate>
                                    <timebase>24</timebase>
                                    <ntsc>FALSE</ntsc>
                                </rate>
                                <rate>
                                    <timebase>24</timebase>
                                    <ntsc>FALSE</ntsc>
                                </rate>
                                <duration>98</duration>
                                <start>6802</start>
                                <end>6900</end>
                                <in>6802</in>
                                <out>6900</out>
                            </clipitem>
                            <clipitem frameBlend="FALSE" id="clipitem-124">
                                <file id="file-6"/>
                                <name>aClip64</name>
                                <rate>
                                    <timebase>24</timebase>
                                    <ntsc>FALSE</ntsc>
                                </rate>
                                <rate>
                                    <timebase>24</timebase>
                                    <ntsc>FALSE</ntsc>
                                </rate>
                                <duration>885</duration>
                                <start>7049</start>
                                <end>7934</end>
                                <in>7049</in>
                                <out>7934</out>
                            </clipitem>
                            <clipitem frameBlend="FALSE" id="clipitem-125">
                                <file id="file-6"/>
                                <name>aClip65</name>
                                <rate>
                                    <timebase>24</timebase>
                                    <ntsc>FALSE</ntsc>
                                </rate>
                                <rate>
                                    <timebase>24</timebase>
                                    <ntsc>FALSE</ntsc>
                                </rate>
                                <duration>150</duration>
                                <start>8732</start>
                                <end>8882</end>
                                <in>8732</in>
                                <out>8882</out>
                            </clipitem>
                            <clipitem frameBlend="FALSE" id="clipitem-126">
                                <file id="file-6"/>
                                <name>aClip66</name>
                                <rate>
                                    <timebase>24</timebase>
                                    <ntsc>FALSE</ntsc>
                                </rate>
                                <rate>
                                    <timebase>24</timebase>
                                    <ntsc>FALSE</ntsc>
                                </rate>
                                <duration>908</duration>
                                <start>9980</start>
                                <end>10888</end>
                                <in>9980</in>
                                <out>10888</out>
                            </clipitem>
                            <clipitem frameBlend="FALSE" id="clipitem-127">
                                <file id="file-6"/>
                                <name>aClip67</name>
                                <rate>
                                    <timebase>24</timebase>
                                    <ntsc>FALSE</ntsc>
                                </rate>
                                <rate>
                                    <timebase>24</timebase>
                                    <ntsc>FALSE</ntsc>
                                </rate>
                                <duration>905</duration>
                                <start>10987</start>
                                <end>11891</end>
                                <in>10987</in>
                                <out>11891</out>
                            </clipitem>
                            <clipitem frameBlend="FALSE" id="clipitem-128">
                                <file id="file-6"/>
                                <name>aClip68</name>
                                <rate>
                                    <timebase>24</timebase>
                                    <ntsc>FALSE</ntsc>
                                </rate>
                                <rate>
                                    <timebase>24</timebase>
                                    <ntsc>FALSE</ntsc>
                                </rate>
                                <duration>187</duration>
                                <start>13969</start>
                                <end>14156</end>
                                <in>13969</in>
                                <out>14156</out>
                            </clipitem>
                            <clipitem frameBlend="FALSE" id="clipitem-129">
                                <file id="file-6"/>
                                <name>aClip69</name>
                                <rate>
                                    <timebase>24</timebase>
                                    <ntsc>FALSE</ntsc>
                                </rate>
                                <rate>
                                    <timebase>24</timebase>
                                    <ntsc>FALSE</ntsc>
                                </rate>
                                <duration>236</duration>
                                <start>14613</start>
                                <end>14850</end>
                                <in>14613</in>
                                <out>14850</out>
                            </clipitem>
                            <clipitem frameBlend="FALSE" id="clipitem-130">
                                <file id="file-6"/>
                                <name>aClip70</name>
                                <rate>
                                    <timebase>24</timebase>
                                    <ntsc>FALSE</ntsc>
                                </rate>
                                <rate>
                                    <timebase>24</timebase>
                                    <ntsc>FALSE</ntsc>
                                </rate>
                                <duration>148</duration>
                                <start>14948</start>
                                <end>15096</end>
                                <in>14948</in>
                                <out>15096</out>
                            </clipitem>
                            <clipitem frameBlend="FALSE" id="clipitem-131">
                                <file id="file-6"/>
                                <name>aClip71</name>
                                <rate>
                                    <timebase>24</timebase>
                                    <ntsc>FALSE</ntsc>
                                </rate>
                                <rate>
                                    <timebase>24</timebase>
                                    <ntsc>FALSE</ntsc>
                                </rate>
                                <duration>749</duration>
                                <start>15382</start>
                                <end>16130</end>
                                <in>15382</in>
                                <out>16130</out>
                            </clipitem>
                            <clipitem frameBlend="FALSE" id="clipitem-132">
                                <file id="file-6"/>
                                <name>aClip72</name>
                                <rate>
                                    <timebase>24</timebase>
                                    <ntsc>FALSE</ntsc>
                                </rate>
                                <rate>
                                    <timebase>24</timebase>
                                    <ntsc>FALSE</ntsc>
                                </rate>
                                <duration>27</duration>
                                <start>16932</start>
                                <end>16958</end>
                                <in>16932</in>
                                <out>16958</out>
                            </clipitem>
                            <clipitem frameBlend="FALSE" id="clipitem-133">
                                <file id="file-6"/>
                                <name>aClip73</name>
                                <rate>
                                    <timebase>24</timebase>
                                    <ntsc>FALSE</ntsc>
                                </rate>
                                <rate>
                                    <timebase>24</timebase>
                                    <ntsc>FALSE</ntsc>
                                </rate>
                                <duration>178</duration>
                                <start>17580</start>
                                <end>17758</end>
                                <in>17580</in>
                                <out>17758</out>
                            </clipitem>
                            <clipitem frameBlend="FALSE" id="clipitem-134">
                                <file id="file-6"/>
                                <name>aClip74</name>
                                <rate>
                                    <timebase>24</timebase>
                                    <ntsc>FALSE</ntsc>
                                </rate>
                                <rate>
                                    <timebase>24</timebase>
                                    <ntsc>FALSE</ntsc>
                                </rate>
                                <duration>98</duration>
                                <start>18582</start>
                                <end>18680</end>
                                <in>18582</in>
                                <out>18680</out>
                            </clipitem>
                            <clipitem frameBlend="FALSE" id="clipitem-135">
                                <file id="file-6"/>
                                <name>aClip75</name>
                                <rate>
                                    <timebase>24</timebase>
                                    <ntsc>FALSE</ntsc>
                                </rate>
                                <rate>
                                    <timebase>24</timebase>
                                    <ntsc>FALSE</ntsc>
                                </rate>
                                <duration>814</duration>
                                <start>19550</start>
                                <end>20364</end>
                                <in>19550</in>
                                <out>20364</out>
                            </clipitem>
                            <clipitem frameBlend="FALSE" id="clipitem-136">
                                <file id="file-6"/>
                                <name>aClip76</name>
                                <rate>
                                    <timebase>24</timebase>
                                    <ntsc>FALSE</ntsc>
                                </rate>
                                <rate>
                                    <timebase>24</timebase>
                                    <ntsc>FALSE</ntsc>
                                </rate>
                                <duration>114</duration>
                                <start>20425</start>
                                <end>20539</end>
                                <in>20425</in>
                                <out>20539</out>
                            </clipitem>
                            <clipitem frameBlend="FALSE" id="clipitem-137">
                                <file id="file-6"/>
                                <name>aClip77</name>
                                <rate>
                                    <timebase>24</timebase>
                                    <ntsc>FALSE</ntsc>
                                </rate>
                                <rate>
                                    <timebase>24</timebase>
                                    <ntsc>FALSE</ntsc>
                                </rate>
                                <duration>604</duration>
                                <start>20883</start>
                                <end>21488</end>
                                <in>20883</in>
                                <out>21488</out>
                            </clipitem>
                            <clipitem frameBlend="FALSE" id="clipitem-138">
                                <file id="file-6"/>
                                <name>aClip78</name>
                                <rate>
                                    <timebase>24</timebase>
                                    <ntsc>FALSE</ntsc>
                                </rate>
                                <rate>
                                    <timebase>24</timebase>
                                    <ntsc>FALSE</ntsc>
                                </rate>
                                <duration>78</duration>
                                <start>21884</start>
                                <end>21962</end>
                                <in>21884</in>
                                <out>21962</out>
                            </clipitem>
                            <clipitem frameBlend="FALSE" id="clipitem-139">
                                <file id="file-6"/>
                                <name>aClip79</name>
                                <rate>
                                    <timebase>24</timebase>
                                    <ntsc>FALSE</ntsc>
                                </rate>
                                <rate>
                                    <timebase>24</timebase>
                                    <ntsc>FALSE</ntsc>
                                </rate>
                                <duration>12</duration>
                                <start>24490</start>
                                <end>24502</end>
                                <in>24490</in>
                                <out>24502</out>
                            </clipitem>
                            <clipitem frameBlend="FALSE" id="clipitem-140">
                                <file id="file-6"/>
                                <name>aClip80</name>
                                <rate>
                                    <timebase>24</timebase>
                                    <ntsc>FALSE</ntsc>
                                </rate>
                                <rate>
                                    <timebase>24</timebase>
                                    <ntsc>FALSE</ntsc>
                                </rate>
                                <duration>416</duration>
                                <start>24903</start>
                                <end>25319</end>
                                <in>24903</in>
                                <out>25319</out>
                            </clipitem>
                            <clipitem frameBlend="FALSE" id="clipitem-141">
                                <file id="file-6"/>
                                <name>aClip81</name>
                                <rate>
                                    <timebase>24</timebase>
                                    <ntsc>FALSE</ntsc>
                                </rate>
                                <rate>
                                    <timebase>24</timebase>
                                    <ntsc>FALSE</ntsc>
                                </rate>
                                <duration>590</duration>
                                <start>26576</start>
                                <end>27166</end>
                                <in>26576</in>
                                <out>27166</out>
                            </clipitem>
                            <clipitem frameBlend="FALSE" id="clipitem-142">
                                <file id="file-6"/>
                                <name>aClip82</name>
                                <rate>
                                    <timebase>24</timebase>
                                    <ntsc>FALSE</ntsc>
                                </rate>
                                <rate>
                                    <timebase>24</timebase>
                                    <ntsc>FALSE</ntsc>
                                </rate>
                                <duration>1207</duration>
                                <start>27251</start>
                                <end>28459</end>
                                <in>27251</in>
                                <out>28459</out>
                            </clipitem>
                            <clipitem frameBlend="FALSE" id="clipitem-143">
                                <file id="file-6"/>
                                <name>aClip83</name>
                                <rate>
                                    <timebase>24</timebase>
                                    <ntsc>FALSE</ntsc>
                                </rate>
                                <rate>
                                    <timebase>24</timebase>
                                    <ntsc>FALSE</ntsc>
                                </rate>
                                <duration>162</duration>
                                <start>28831</start>
                                <end>28993</end>
                                <in>28831</in>
                                <out>28993</out>
                            </clipitem>
                            <clipitem frameBlend="FALSE" id="clipitem-144">
                                <file id="file-6"/>
                                <name>aClip84</name>
                                <rate>
                                    <timebase>24</timebase>
                                    <ntsc>FALSE</ntsc>
                                </rate>
                                <rate>
                                    <timebase>24</timebase>
                                    <ntsc>FALSE</ntsc>
                                </rate>
                                <duration>155</duration>
                                <start>30049</start>
                                <end>30204</end>
                                <in>30049</in>
                                <out>30204</out>
                            </clipitem>
                            <clipitem frameBlend="FALSE" id="clipitem-145">
                                <file id="file-6"/>
                                <name>aClip85</name>
                                <rate>
                                    <timebase>24</timebase>
                                    <ntsc>FALSE</ntsc>
                                </rate>
                                <rate>
                                    <timebase>24</timebase>
                                    <ntsc>FALSE</ntsc>
                                </rate>
                                <duration>86</duration>
                                <start>30588</start>
                                <end>30674</end>
                                <in>30588</in>
                                <out>30674</out>
                            </clipitem>
                            <clipitem frameBlend="FALSE" id="clipitem-146">
                                <file id="file-6"/>
                                <name>aClip86</name>
                                <rate>
                                    <timebase>24</timebase>
                                    <ntsc>FALSE</ntsc>
                                </rate>
                                <rate>
                                    <timebase>24</timebase>
                                    <ntsc>FALSE</ntsc>
                                </rate>
                                <duration>5</duration>
                                <start>31180</start>
                                <end>31184</end>
                                <in>31180</in>
                                <out>31184</out>
                            </clipitem>
                        </track>
                    </audio>
                </media>
            </sequence>
        </children>
    </project>
</xmeml>
